<mxfile host="app.diagrams.net" modified="2024-04-25T03:04:04.783Z" agent="Mozilla/5.0 (Windows NT 10.0; Win64; x64) AppleWebKit/537.36 (KHTML, like Gecko) Chrome/124.0.0.0 Safari/537.36" etag="Fb3b9veObu1rh7CeUOIF" version="24.3.0" type="device">
  <diagram id="C5RBs43oDa-KdzZeNtuy" name="Page-1">
    <mxGraphModel dx="1211" dy="885" grid="0" gridSize="10" guides="1" tooltips="1" connect="1" arrows="1" fold="1" page="1" pageScale="1" pageWidth="827" pageHeight="1169" math="1" shadow="0">
      <root>
        <mxCell id="WIyWlLk6GJQsqaUBKTNV-0" />
        <mxCell id="WIyWlLk6GJQsqaUBKTNV-1" parent="WIyWlLk6GJQsqaUBKTNV-0" />
        <mxCell id="0U2A66mKt2NTDoZGscok-0" value="" style="strokeWidth=2;html=1;shape=mxgraph.flowchart.start_1;whiteSpace=wrap;" vertex="1" parent="WIyWlLk6GJQsqaUBKTNV-1">
          <mxGeometry x="280" y="30" width="100" height="60" as="geometry" />
        </mxCell>
        <mxCell id="0U2A66mKt2NTDoZGscok-1" value="&lt;b&gt;Start&lt;/b&gt;" style="text;html=1;align=center;verticalAlign=middle;whiteSpace=wrap;rounded=0;" vertex="1" parent="WIyWlLk6GJQsqaUBKTNV-1">
          <mxGeometry x="300" y="45" width="60" height="30" as="geometry" />
        </mxCell>
        <mxCell id="0U2A66mKt2NTDoZGscok-2" value="" style="endArrow=classic;html=1;rounded=0;exitX=0.5;exitY=1;exitDx=0;exitDy=0;exitPerimeter=0;" edge="1" parent="WIyWlLk6GJQsqaUBKTNV-1" source="0U2A66mKt2NTDoZGscok-0">
          <mxGeometry width="50" height="50" relative="1" as="geometry">
            <mxPoint x="320" y="280" as="sourcePoint" />
            <mxPoint x="330" y="120" as="targetPoint" />
          </mxGeometry>
        </mxCell>
        <mxCell id="0U2A66mKt2NTDoZGscok-3" value="" style="shape=parallelogram;html=1;strokeWidth=2;perimeter=parallelogramPerimeter;whiteSpace=wrap;rounded=1;arcSize=12;size=0.23;" vertex="1" parent="WIyWlLk6GJQsqaUBKTNV-1">
          <mxGeometry x="280" y="120" width="100" height="60" as="geometry" />
        </mxCell>
        <mxCell id="0U2A66mKt2NTDoZGscok-4" value="&lt;b&gt;input: a, b, f, epsilon&lt;/b&gt;" style="text;html=1;align=center;verticalAlign=middle;whiteSpace=wrap;rounded=0;" vertex="1" parent="WIyWlLk6GJQsqaUBKTNV-1">
          <mxGeometry x="300" y="135" width="60" height="30" as="geometry" />
        </mxCell>
        <mxCell id="0U2A66mKt2NTDoZGscok-8" value="" style="endArrow=classic;html=1;rounded=0;exitX=0.5;exitY=1;exitDx=0;exitDy=0;" edge="1" parent="WIyWlLk6GJQsqaUBKTNV-1" source="0U2A66mKt2NTDoZGscok-3">
          <mxGeometry width="50" height="50" relative="1" as="geometry">
            <mxPoint x="310" y="280" as="sourcePoint" />
            <mxPoint x="330" y="210" as="targetPoint" />
          </mxGeometry>
        </mxCell>
        <mxCell id="0U2A66mKt2NTDoZGscok-9" value="" style="rounded=1;whiteSpace=wrap;html=1;absoluteArcSize=1;arcSize=14;strokeWidth=2;" vertex="1" parent="WIyWlLk6GJQsqaUBKTNV-1">
          <mxGeometry x="250" y="210" width="160" height="100" as="geometry" />
        </mxCell>
        <mxCell id="0U2A66mKt2NTDoZGscok-10" value="&lt;div&gt;&lt;div&gt;\(n = 2\)&lt;/div&gt;&lt;/div&gt;&lt;div&gt;\(h = \frac{|b - a|}{n}\)&lt;/div&gt;&lt;div&gt;\(integral\_1 = 0\)&lt;/div&gt;&lt;div&gt;\(integral\_2 = epsilon + 1\)&lt;/div&gt;" style="text;html=1;align=center;verticalAlign=middle;whiteSpace=wrap;rounded=0;" vertex="1" parent="WIyWlLk6GJQsqaUBKTNV-1">
          <mxGeometry x="300" y="244" width="60" height="30" as="geometry" />
        </mxCell>
        <mxCell id="0U2A66mKt2NTDoZGscok-11" value="" style="rhombus;whiteSpace=wrap;html=1;" vertex="1" parent="WIyWlLk6GJQsqaUBKTNV-1">
          <mxGeometry x="200" y="340" width="260" height="80" as="geometry" />
        </mxCell>
        <mxCell id="0U2A66mKt2NTDoZGscok-12" value="" style="endArrow=classic;html=1;rounded=0;exitX=0.5;exitY=1;exitDx=0;exitDy=0;entryX=0.5;entryY=0;entryDx=0;entryDy=0;" edge="1" parent="WIyWlLk6GJQsqaUBKTNV-1" source="0U2A66mKt2NTDoZGscok-9" target="0U2A66mKt2NTDoZGscok-11">
          <mxGeometry width="50" height="50" relative="1" as="geometry">
            <mxPoint x="310" y="310" as="sourcePoint" />
            <mxPoint x="360" y="260" as="targetPoint" />
          </mxGeometry>
        </mxCell>
        <mxCell id="0U2A66mKt2NTDoZGscok-13" value="\(|integral\_1 - integral\_2| &amp;gt;= epsilon\)" style="text;html=1;align=center;verticalAlign=middle;whiteSpace=wrap;rounded=0;" vertex="1" parent="WIyWlLk6GJQsqaUBKTNV-1">
          <mxGeometry x="300" y="365" width="60" height="30" as="geometry" />
        </mxCell>
        <mxCell id="0U2A66mKt2NTDoZGscok-14" value="" style="endArrow=classic;html=1;rounded=0;exitX=0.5;exitY=1;exitDx=0;exitDy=0;" edge="1" parent="WIyWlLk6GJQsqaUBKTNV-1" source="0U2A66mKt2NTDoZGscok-11">
          <mxGeometry width="50" height="50" relative="1" as="geometry">
            <mxPoint x="290" y="370" as="sourcePoint" />
            <mxPoint x="330" y="460" as="targetPoint" />
          </mxGeometry>
        </mxCell>
        <mxCell id="0U2A66mKt2NTDoZGscok-15" value="Yes" style="text;html=1;align=center;verticalAlign=middle;whiteSpace=wrap;rounded=0;" vertex="1" parent="WIyWlLk6GJQsqaUBKTNV-1">
          <mxGeometry x="310" y="420" width="60" height="30" as="geometry" />
        </mxCell>
        <mxCell id="0U2A66mKt2NTDoZGscok-16" value="" style="rounded=1;whiteSpace=wrap;html=1;absoluteArcSize=1;arcSize=14;strokeWidth=2;" vertex="1" parent="WIyWlLk6GJQsqaUBKTNV-1">
          <mxGeometry x="250" y="460" width="160" height="100" as="geometry" />
        </mxCell>
        <mxCell id="0U2A66mKt2NTDoZGscok-17" value="\(integral\_1 = integral\_2\)&lt;div&gt;\(integral\_2 = 0\)&lt;/div&gt;&lt;div&gt;\(h = \frac{|b - a|}{n}\)&lt;/div&gt;" style="text;html=1;align=center;verticalAlign=middle;whiteSpace=wrap;rounded=0;" vertex="1" parent="WIyWlLk6GJQsqaUBKTNV-1">
          <mxGeometry x="300" y="495" width="60" height="30" as="geometry" />
        </mxCell>
        <mxCell id="0U2A66mKt2NTDoZGscok-18" value="" style="strokeWidth=2;html=1;shape=mxgraph.flowchart.loop_limit;whiteSpace=wrap;" vertex="1" parent="WIyWlLk6GJQsqaUBKTNV-1">
          <mxGeometry x="280" y="585" width="100" height="60" as="geometry" />
        </mxCell>
        <mxCell id="0U2A66mKt2NTDoZGscok-19" value="" style="endArrow=classic;html=1;rounded=0;exitX=0.5;exitY=1;exitDx=0;exitDy=0;entryX=0.5;entryY=0;entryDx=0;entryDy=0;entryPerimeter=0;" edge="1" parent="WIyWlLk6GJQsqaUBKTNV-1" source="0U2A66mKt2NTDoZGscok-16" target="0U2A66mKt2NTDoZGscok-18">
          <mxGeometry width="50" height="50" relative="1" as="geometry">
            <mxPoint x="290" y="520" as="sourcePoint" />
            <mxPoint x="340" y="470" as="targetPoint" />
          </mxGeometry>
        </mxCell>
        <mxCell id="0U2A66mKt2NTDoZGscok-20" value="&lt;b&gt;i to n&lt;/b&gt;" style="text;html=1;align=center;verticalAlign=middle;whiteSpace=wrap;rounded=0;" vertex="1" parent="WIyWlLk6GJQsqaUBKTNV-1">
          <mxGeometry x="300" y="600" width="60" height="30" as="geometry" />
        </mxCell>
        <mxCell id="0U2A66mKt2NTDoZGscok-21" value="" style="endArrow=classic;html=1;rounded=0;exitX=0.5;exitY=1;exitDx=0;exitDy=0;exitPerimeter=0;" edge="1" parent="WIyWlLk6GJQsqaUBKTNV-1" source="0U2A66mKt2NTDoZGscok-18">
          <mxGeometry width="50" height="50" relative="1" as="geometry">
            <mxPoint x="290" y="680" as="sourcePoint" />
            <mxPoint x="330" y="680" as="targetPoint" />
          </mxGeometry>
        </mxCell>
        <mxCell id="0U2A66mKt2NTDoZGscok-22" value="" style="rhombus;whiteSpace=wrap;html=1;" vertex="1" parent="WIyWlLk6GJQsqaUBKTNV-1">
          <mxGeometry x="280" y="680" width="100" height="80" as="geometry" />
        </mxCell>
        <mxCell id="0U2A66mKt2NTDoZGscok-23" value="\(a + i * h == 0\)" style="text;html=1;align=center;verticalAlign=middle;whiteSpace=wrap;rounded=0;" vertex="1" parent="WIyWlLk6GJQsqaUBKTNV-1">
          <mxGeometry x="300" y="705" width="60" height="30" as="geometry" />
        </mxCell>
        <mxCell id="0U2A66mKt2NTDoZGscok-26" value="" style="endArrow=classic;html=1;rounded=0;exitX=0.5;exitY=1;exitDx=0;exitDy=0;" edge="1" parent="WIyWlLk6GJQsqaUBKTNV-1" source="0U2A66mKt2NTDoZGscok-22">
          <mxGeometry width="50" height="50" relative="1" as="geometry">
            <mxPoint x="310" y="770" as="sourcePoint" />
            <mxPoint x="270" y="820" as="targetPoint" />
          </mxGeometry>
        </mxCell>
        <mxCell id="0U2A66mKt2NTDoZGscok-33" value="" style="ellipse;whiteSpace=wrap;html=1;aspect=fixed;" vertex="1" parent="WIyWlLk6GJQsqaUBKTNV-1">
          <mxGeometry x="250" y="820" width="40" height="40" as="geometry" />
        </mxCell>
        <mxCell id="0U2A66mKt2NTDoZGscok-34" value="&lt;b&gt;1&lt;/b&gt;" style="text;html=1;align=center;verticalAlign=middle;whiteSpace=wrap;rounded=0;" vertex="1" parent="WIyWlLk6GJQsqaUBKTNV-1">
          <mxGeometry x="240" y="825" width="60" height="30" as="geometry" />
        </mxCell>
        <mxCell id="0U2A66mKt2NTDoZGscok-35" value="" style="ellipse;whiteSpace=wrap;html=1;aspect=fixed;" vertex="1" parent="WIyWlLk6GJQsqaUBKTNV-1">
          <mxGeometry x="360" y="820" width="40" height="40" as="geometry" />
        </mxCell>
        <mxCell id="0U2A66mKt2NTDoZGscok-36" value="&lt;b&gt;2&lt;/b&gt;" style="text;html=1;align=center;verticalAlign=middle;whiteSpace=wrap;rounded=0;" vertex="1" parent="WIyWlLk6GJQsqaUBKTNV-1">
          <mxGeometry x="350" y="825" width="60" height="30" as="geometry" />
        </mxCell>
        <mxCell id="0U2A66mKt2NTDoZGscok-37" value="" style="endArrow=classic;html=1;rounded=0;exitX=0.5;exitY=1;exitDx=0;exitDy=0;" edge="1" parent="WIyWlLk6GJQsqaUBKTNV-1" source="0U2A66mKt2NTDoZGscok-22">
          <mxGeometry width="50" height="50" relative="1" as="geometry">
            <mxPoint x="290" y="670" as="sourcePoint" />
            <mxPoint x="380" y="820" as="targetPoint" />
          </mxGeometry>
        </mxCell>
        <mxCell id="0U2A66mKt2NTDoZGscok-38" value="" style="ellipse;whiteSpace=wrap;html=1;aspect=fixed;" vertex="1" parent="WIyWlLk6GJQsqaUBKTNV-1">
          <mxGeometry x="530" y="40" width="40" height="40" as="geometry" />
        </mxCell>
        <mxCell id="0U2A66mKt2NTDoZGscok-39" value="&lt;b&gt;1&lt;/b&gt;" style="text;html=1;align=center;verticalAlign=middle;whiteSpace=wrap;rounded=0;" vertex="1" parent="WIyWlLk6GJQsqaUBKTNV-1">
          <mxGeometry x="520" y="45" width="60" height="30" as="geometry" />
        </mxCell>
        <mxCell id="0U2A66mKt2NTDoZGscok-40" value="" style="ellipse;whiteSpace=wrap;html=1;aspect=fixed;" vertex="1" parent="WIyWlLk6GJQsqaUBKTNV-1">
          <mxGeometry x="680" y="40" width="40" height="40" as="geometry" />
        </mxCell>
        <mxCell id="0U2A66mKt2NTDoZGscok-41" value="&lt;b&gt;2&lt;/b&gt;" style="text;html=1;align=center;verticalAlign=middle;whiteSpace=wrap;rounded=0;" vertex="1" parent="WIyWlLk6GJQsqaUBKTNV-1">
          <mxGeometry x="670" y="45" width="60" height="30" as="geometry" />
        </mxCell>
        <mxCell id="0U2A66mKt2NTDoZGscok-42" value="&lt;b&gt;Yes&lt;/b&gt;" style="text;html=1;align=center;verticalAlign=middle;whiteSpace=wrap;rounded=0;" vertex="1" parent="WIyWlLk6GJQsqaUBKTNV-1">
          <mxGeometry x="250" y="770" width="60" height="30" as="geometry" />
        </mxCell>
        <mxCell id="0U2A66mKt2NTDoZGscok-43" value="&lt;b&gt;No&lt;/b&gt;" style="text;html=1;align=center;verticalAlign=middle;whiteSpace=wrap;rounded=0;" vertex="1" parent="WIyWlLk6GJQsqaUBKTNV-1">
          <mxGeometry x="350" y="770" width="60" height="30" as="geometry" />
        </mxCell>
        <mxCell id="0U2A66mKt2NTDoZGscok-44" value="" style="endArrow=classic;html=1;rounded=0;exitX=0.5;exitY=1;exitDx=0;exitDy=0;" edge="1" parent="WIyWlLk6GJQsqaUBKTNV-1" source="0U2A66mKt2NTDoZGscok-39">
          <mxGeometry width="50" height="50" relative="1" as="geometry">
            <mxPoint x="570" y="160" as="sourcePoint" />
            <mxPoint x="550" y="120" as="targetPoint" />
          </mxGeometry>
        </mxCell>
        <mxCell id="0U2A66mKt2NTDoZGscok-45" value="" style="endArrow=classic;html=1;rounded=0;exitX=0.5;exitY=1;exitDx=0;exitDy=0;" edge="1" parent="WIyWlLk6GJQsqaUBKTNV-1" source="0U2A66mKt2NTDoZGscok-41">
          <mxGeometry width="50" height="50" relative="1" as="geometry">
            <mxPoint x="570" y="160" as="sourcePoint" />
            <mxPoint x="700" y="120" as="targetPoint" />
          </mxGeometry>
        </mxCell>
        <mxCell id="0U2A66mKt2NTDoZGscok-46" value="" style="rounded=1;whiteSpace=wrap;html=1;absoluteArcSize=1;arcSize=14;strokeWidth=2;" vertex="1" parent="WIyWlLk6GJQsqaUBKTNV-1">
          <mxGeometry x="450" y="120" width="200" height="50" as="geometry" />
        </mxCell>
        <mxCell id="0U2A66mKt2NTDoZGscok-47" value="" style="rounded=1;whiteSpace=wrap;html=1;absoluteArcSize=1;arcSize=14;strokeWidth=2;" vertex="1" parent="WIyWlLk6GJQsqaUBKTNV-1">
          <mxGeometry x="660" y="120" width="270" height="50" as="geometry" />
        </mxCell>
        <mxCell id="0U2A66mKt2NTDoZGscok-48" value="\(integral\_2&amp;nbsp; = integral\_2 +&amp;nbsp; &amp;nbsp;1 * h\)" style="text;html=1;align=center;verticalAlign=middle;whiteSpace=wrap;rounded=0;" vertex="1" parent="WIyWlLk6GJQsqaUBKTNV-1">
          <mxGeometry x="520" y="130" width="60" height="30" as="geometry" />
        </mxCell>
        <mxCell id="0U2A66mKt2NTDoZGscok-49" value="\(integral\_2 = inegral\_2 + h * f(a + i * h)\)" style="text;html=1;align=center;verticalAlign=middle;whiteSpace=wrap;rounded=0;" vertex="1" parent="WIyWlLk6GJQsqaUBKTNV-1">
          <mxGeometry x="767" y="130" width="60" height="30" as="geometry" />
        </mxCell>
        <mxCell id="0U2A66mKt2NTDoZGscok-50" value="" style="strokeWidth=2;html=1;shape=mxgraph.flowchart.loop_limit;whiteSpace=wrap;direction=west;" vertex="1" parent="WIyWlLk6GJQsqaUBKTNV-1">
          <mxGeometry x="610" y="260" width="100" height="60" as="geometry" />
        </mxCell>
        <mxCell id="0U2A66mKt2NTDoZGscok-51" value="" style="endArrow=classic;html=1;rounded=0;exitX=0.5;exitY=1;exitDx=0;exitDy=0;entryX=0.5;entryY=1;entryDx=0;entryDy=0;entryPerimeter=0;" edge="1" parent="WIyWlLk6GJQsqaUBKTNV-1" source="0U2A66mKt2NTDoZGscok-46" target="0U2A66mKt2NTDoZGscok-50">
          <mxGeometry width="50" height="50" relative="1" as="geometry">
            <mxPoint x="590" y="270" as="sourcePoint" />
            <mxPoint x="640" y="220" as="targetPoint" />
          </mxGeometry>
        </mxCell>
        <mxCell id="0U2A66mKt2NTDoZGscok-52" value="" style="endArrow=classic;html=1;rounded=0;exitX=0.5;exitY=1;exitDx=0;exitDy=0;entryX=0.5;entryY=1;entryDx=0;entryDy=0;entryPerimeter=0;" edge="1" parent="WIyWlLk6GJQsqaUBKTNV-1" source="0U2A66mKt2NTDoZGscok-47" target="0U2A66mKt2NTDoZGscok-50">
          <mxGeometry width="50" height="50" relative="1" as="geometry">
            <mxPoint x="590" y="270" as="sourcePoint" />
            <mxPoint x="640" y="220" as="targetPoint" />
          </mxGeometry>
        </mxCell>
        <mxCell id="0U2A66mKt2NTDoZGscok-54" value="&lt;b&gt;End loop&lt;/b&gt;" style="text;html=1;align=center;verticalAlign=middle;whiteSpace=wrap;rounded=0;" vertex="1" parent="WIyWlLk6GJQsqaUBKTNV-1">
          <mxGeometry x="630" y="270" width="60" height="30" as="geometry" />
        </mxCell>
        <mxCell id="0U2A66mKt2NTDoZGscok-55" value="" style="endArrow=classic;html=1;rounded=0;exitX=0.5;exitY=0;exitDx=0;exitDy=0;exitPerimeter=0;" edge="1" parent="WIyWlLk6GJQsqaUBKTNV-1" source="0U2A66mKt2NTDoZGscok-50">
          <mxGeometry width="50" height="50" relative="1" as="geometry">
            <mxPoint x="530" y="480" as="sourcePoint" />
            <mxPoint x="660" y="370" as="targetPoint" />
          </mxGeometry>
        </mxCell>
        <mxCell id="0U2A66mKt2NTDoZGscok-56" value="" style="rounded=1;whiteSpace=wrap;html=1;absoluteArcSize=1;arcSize=14;strokeWidth=2;" vertex="1" parent="WIyWlLk6GJQsqaUBKTNV-1">
          <mxGeometry x="610" y="370" width="100" height="50" as="geometry" />
        </mxCell>
        <mxCell id="0U2A66mKt2NTDoZGscok-57" value="&lt;b&gt;n = n * 2&lt;/b&gt;" style="text;html=1;align=center;verticalAlign=middle;whiteSpace=wrap;rounded=0;" vertex="1" parent="WIyWlLk6GJQsqaUBKTNV-1">
          <mxGeometry x="630" y="380" width="60" height="30" as="geometry" />
        </mxCell>
        <mxCell id="0U2A66mKt2NTDoZGscok-58" value="" style="endArrow=classic;html=1;rounded=0;exitX=0;exitY=0.5;exitDx=0;exitDy=0;entryX=1;entryY=0.5;entryDx=0;entryDy=0;" edge="1" parent="WIyWlLk6GJQsqaUBKTNV-1" source="0U2A66mKt2NTDoZGscok-56" target="0U2A66mKt2NTDoZGscok-11">
          <mxGeometry width="50" height="50" relative="1" as="geometry">
            <mxPoint x="510" y="510" as="sourcePoint" />
            <mxPoint x="560" y="460" as="targetPoint" />
            <Array as="points">
              <mxPoint x="520" y="395" />
            </Array>
          </mxGeometry>
        </mxCell>
        <mxCell id="0U2A66mKt2NTDoZGscok-59" value="" style="endArrow=classic;html=1;rounded=0;exitX=1;exitY=0.5;exitDx=0;exitDy=0;" edge="1" parent="WIyWlLk6GJQsqaUBKTNV-1" source="0U2A66mKt2NTDoZGscok-11" target="0U2A66mKt2NTDoZGscok-60">
          <mxGeometry width="50" height="50" relative="1" as="geometry">
            <mxPoint x="510" y="510" as="sourcePoint" />
            <mxPoint x="620" y="550" as="targetPoint" />
          </mxGeometry>
        </mxCell>
        <mxCell id="0U2A66mKt2NTDoZGscok-60" value="" style="shape=parallelogram;html=1;strokeWidth=2;perimeter=parallelogramPerimeter;whiteSpace=wrap;rounded=1;arcSize=12;size=0.23;" vertex="1" parent="WIyWlLk6GJQsqaUBKTNV-1">
          <mxGeometry x="610" y="510" width="100" height="60" as="geometry" />
        </mxCell>
        <mxCell id="0U2A66mKt2NTDoZGscok-61" value="&lt;b&gt;output: \(integral\_2\)&lt;/b&gt;" style="text;html=1;align=center;verticalAlign=middle;whiteSpace=wrap;rounded=0;" vertex="1" parent="WIyWlLk6GJQsqaUBKTNV-1">
          <mxGeometry x="630" y="525" width="60" height="30" as="geometry" />
        </mxCell>
        <mxCell id="0U2A66mKt2NTDoZGscok-62" value="&lt;b&gt;No&lt;/b&gt;" style="text;html=1;align=center;verticalAlign=middle;whiteSpace=wrap;rounded=0;" vertex="1" parent="WIyWlLk6GJQsqaUBKTNV-1">
          <mxGeometry x="500" y="450" width="60" height="30" as="geometry" />
        </mxCell>
        <mxCell id="0U2A66mKt2NTDoZGscok-64" value="" style="endArrow=classic;html=1;rounded=0;exitX=0.5;exitY=1;exitDx=0;exitDy=0;" edge="1" parent="WIyWlLk6GJQsqaUBKTNV-1" source="0U2A66mKt2NTDoZGscok-60" target="0U2A66mKt2NTDoZGscok-65">
          <mxGeometry width="50" height="50" relative="1" as="geometry">
            <mxPoint x="510" y="510" as="sourcePoint" />
            <mxPoint x="660" y="620" as="targetPoint" />
          </mxGeometry>
        </mxCell>
        <mxCell id="0U2A66mKt2NTDoZGscok-65" value="" style="strokeWidth=2;html=1;shape=mxgraph.flowchart.start_1;whiteSpace=wrap;" vertex="1" parent="WIyWlLk6GJQsqaUBKTNV-1">
          <mxGeometry x="610" y="620" width="100" height="60" as="geometry" />
        </mxCell>
        <mxCell id="0U2A66mKt2NTDoZGscok-66" value="&lt;b&gt;Finish&lt;/b&gt;" style="text;html=1;align=center;verticalAlign=middle;whiteSpace=wrap;rounded=0;" vertex="1" parent="WIyWlLk6GJQsqaUBKTNV-1">
          <mxGeometry x="630" y="635" width="60" height="30" as="geometry" />
        </mxCell>
      </root>
    </mxGraphModel>
  </diagram>
</mxfile>
